<svg width="1429" height="793" xmlns="http://www.w3.org/2000/svg" xmlns:xlink="http://www.w3.org/1999/xlink" overflow="hidden"><defs><clipPath id="clip0"><rect x="4" y="5" width="1429" height="793"/></clipPath><radialGradient cx="3.01466e+06" cy="3.01466e+06" r="4.26338e+06" gradientUnits="userSpaceOnUse" spreadMethod="pad" id="fill1" gradientTransform="matrix(0.000104987 0 0 0.000104987 17.5001 36.5001)"><stop offset="0" stop-color="#F6F8FC" stop-opacity="0"/><stop offset="0.44206" stop-color="#FADD82" stop-opacity="0.501961"/><stop offset="0.62" stop-color="#FCD251" stop-opacity="0.501961"/><stop offset="1" stop-color="#FFC000" stop-opacity="0.501961"/></radialGradient><linearGradient x1="305.5" y1="501.5" x2="650.5" y2="501.5" gradientUnits="userSpaceOnUse" spreadMethod="reflect" id="fill2"><stop offset="0" stop-color="#F6F8FC" stop-opacity="0"/><stop offset="0.44206" stop-color="#FADD82" stop-opacity="0.501961"/><stop offset="0.62" stop-color="#FCD251" stop-opacity="0.501961"/><stop offset="1" stop-color="#FFC000" stop-opacity="0.501961"/></linearGradient><clipPath id="clip3"><path d="M238 246 429 246 429 364.039 419.95 366.428C402.035 372.341 385.504 382.892 367.712 402.094 359.345 412.835 352.749 423.652 347.628 434.383L346.135 438 238 438Z" fill-rule="evenodd" clip-rule="evenodd"/></clipPath><clipPath id="clip4"><rect x="238" y="246" width="191" height="192"/></clipPath><clipPath id="clip5"><rect x="238" y="246" width="191" height="192"/></clipPath></defs><g clip-path="url(#clip0)" transform="translate(-4 -5)"><path d="M17.5001 353C17.5001 178.202 159.202 36.5001 334 36.5001 508.798 36.5001 650.5 178.202 650.5 353 650.5 527.798 508.798 669.5 334 669.5 159.202 669.5 17.5001 527.798 17.5001 353Z" stroke="#FFC000" stroke-width="26.6667" stroke-miterlimit="8" fill="url(#fill1)" fill-rule="evenodd"/><path d="M297.425 45.5001 369.672 45.5001 400.377 108.809C420.245 114.235 439.209 122.375 457.271 132.324L525.002 109.713 576.478 161.265 553.901 229.096C563.835 246.28 571.963 265.272 577.381 285.169L641.5 315.919 641.5 342.209 617.455 348.444C536.794 367.406 486.8 363.786 448.736 365.923L440.972 366.559 441.356 364.056C441.728 360.419 441.919 356.731 441.919 353 441.919 293.309 393.152 244.471 333.549 244.471 273.945 244.471 225.178 293.309 225.178 353 225.178 412.691 273.945 461.529 333.549 461.529L335.703 461.42 333.385 473.896C326.765 522.999 345.074 562.886 350.356 570.759 344.514 601.86 312.268 656.095 298.328 660.5L266.72 597.191C246.852 591.765 227.888 583.625 209.826 573.677L142.095 596.287 90.619 544.735 113.196 476.904C103.262 459.721 95.1344 440.728 89.716 420.831L26.5001 389.177 26.5001 316.824 89.716 286.074C95.1344 266.177 103.262 247.184 113.196 229.096L90.619 161.265 142.095 109.713 209.826 132.324C226.985 122.375 245.949 114.235 265.817 108.809L297.425 45.5001Z" stroke="#FFC000" stroke-width="27.3051" stroke-miterlimit="8" stroke-opacity="0.988235" fill="none" fill-rule="evenodd"/><path d="M649.663 342.5C650.456 352.387 650.678 362.442 650.36 372.579L647.881 402.388 647.501 404.884 642.617 431.562 640.417 440.128 635.334 458.178 626.212 483.136C610.216 521.003 587.071 555.105 558.471 583.744L544.174 596.754 533.206 605.002C488.078 633.833 424.998 628.333 367.832 590.35 330.44 599.6 356.662 650.837 308.856 660.5 277.045 607.172 481.583 474.747 491.68 458.641 489.357 416.587 395.533 535.59 353.535 573.529 345.85 562.076 304.746 481.905 364.079 406.028 427.165 338.205 472.379 392.607 649.663 342.5Z" stroke="#FFC000" stroke-width="26.6667" stroke-miterlimit="8" fill="url(#fill2)" fill-rule="evenodd"/><g clip-path="url(#clip3)"><g clip-path="url(#clip4)"><g clip-path="url(#clip5)"><path d="M95.5 23.875 95.5 23.875 11.9375 103.458 20.8906 111.019 95.5 40.1896 95.5 40.1896 170.109 111.019 179.063 103.458Z" fill="#FFC000" transform="matrix(1 0 0 1.00524 238 246)"/><path d="M35.8125 108.034 35.8125 167.125 83.5625 167.125 83.5625 117.385 107.438 117.385 107.438 167.125 155.188 167.125 155.188 108.034 95.5 51.3312 35.8125 108.034Z" fill="#FFC000" transform="matrix(1 0 0 1.00524 238 246)"/></g></g></g><text font-family="Segoe UI,Segoe UI_MSFontService,sans-serif" font-weight="400" font-size="265" transform="translate(674.326 344)">SERV<tspan font-size="265" x="-9.1748" y="234">AIR</tspan></text></g></svg>